<?xml version="1.0" standalone="no"?>
<!DOCTYPE svg PUBLIC "-//W3C//DTD SVG 20010904//EN"
 "http://www.w3.org/TR/2001/REC-SVG-20010904/DTD/svg10.dtd">
<svg version="1.0" xmlns="http://www.w3.org/2000/svg"
 width="500.000000pt" height="500.000000pt" viewBox="0 0 500.000000 500.000000"
 preserveAspectRatio="xMidYMid meet">

<g transform="translate(0.000000,500.000000) scale(0.100000,-0.100000)"
fill="#000000" stroke="none">
<path d="M2310 4150 c-513 -72 -933 -334 -1204 -752 -321 -494 -353 -1110 -86
-1643 83 -165 173 -288 315 -430 186 -187 391 -314 637 -396 164 -55 288 -78
458 -85 281 -12 523 36 775 155 480 227 821 664 925 1186 11 55 23 165 26 245
16 374 -92 731 -313 1043 -78 110 -266 296 -383 380 -179 127 -415 228 -646
277 -113 24 -396 35 -504 20z m525 -50 c1018 -221 1579 -1316 1159 -2264 -211
-475 -653 -832 -1161 -937 -623 -128 -1261 115 -1644 626 -149 200 -257 454
-300 706 -28 163 -23 460 10 607 62 279 195 540 382 749 229 257 556 446 884
512 149 30 145 29 365 26 165 -2 225 -7 305 -25z"/>
<path d="M2440 3890 c0 -47 3 -60 15 -60 10 0 15 11 16 33 l0 32 16 -32 c10
-19 24 -33 35 -33 15 0 18 9 18 60 0 47 -3 60 -15 60 -11 0 -15 -11 -15 -37
l-1 -38 -20 38 c-30 58 -49 49 -49 -23z"/>
<path d="M2254 3880 c6 -46 5 -50 -13 -50 -20 0 -25 10 -33 64 -5 29 -28 32
-28 3 0 -69 48 -118 85 -87 24 20 18 120 -7 120 -7 0 -8 -18 -4 -50z"/>
<path d="M2706 3898 c-31 -43 -8 -98 41 -98 43 0 72 77 41 108 -20 20 -65 14
-82 -10z m62 -26 c4 -28 -14 -53 -34 -45 -26 10 -13 76 15 71 9 -2 17 -14 19
-26z"/>
<path d="M2956 3844 c-10 -27 -7 -103 6 -110 11 -7 88 70 88 89 0 20 -30 3
-53 -30 l-27 -37 7 52 c4 33 2 52 -5 52 -5 0 -13 -7 -16 -16z"/>
<path d="M1947 3838 c-18 -13 -18 -16 -1 -58 9 -25 20 -49 24 -53 12 -14 60
16 67 42 14 55 -46 101 -90 69z m51 -20 c14 -14 16 -54 2 -63 -11 -7 -43 52
-35 65 8 13 18 13 33 -2z"/>
<path d="M1741 3729 l-32 -19 32 -48 c18 -26 34 -49 35 -51 2 -2 17 7 34 19
32 23 33 48 0 28 -22 -14 -39 -3 -22 14 19 19 14 29 -13 22 -31 -8 -33 8 -3
28 34 23 6 29 -31 7z"/>
<path d="M3167 3702 c-25 -21 -46 -40 -47 -45 0 -4 14 -6 32 -5 25 2 33 -1 36
-17 7 -38 21 -37 31 1 22 87 23 91 8 97 -8 3 -35 -11 -60 -31z m38 -21 c-3 -6
-11 -11 -17 -11 -6 0 -6 6 2 15 14 17 26 13 15 -4z"/>
<path d="M2270 3610 c-216 -46 -396 -140 -554 -290 -105 -100 -234 -280 -224
-312 2 -6 19 15 37 48 136 239 380 433 648 514 82 24 247 50 323 50 135 0 307
-39 455 -102 203 -88 416 -285 528 -488 10 -18 20 -30 24 -27 10 11 -87 162
-158 245 -153 181 -409 326 -648 367 -116 21 -324 18 -431 -5z"/>
<path d="M1193 2188 c-28 -6 -43 -15 -43 -25 0 -10 6 -13 16 -9 29 11 36 -5
13 -30 -31 -33 -16 -43 22 -15 26 19 35 21 55 12 20 -9 24 -8 24 4 0 9 -12 21
-27 27 -27 11 -27 12 -5 15 26 5 30 34 5 32 -10 -1 -37 -5 -60 -11z"/>
<path d="M3701 2183 c-5 -10 -11 -29 -12 -43 -4 -23 0 -25 50 -33 34 -6 57 -5
63 1 7 7 3 12 -11 17 -28 9 -27 21 4 29 14 4 25 13 25 21 0 11 -5 12 -24 5
-18 -6 -28 -5 -36 6 -17 19 -47 18 -59 -3z m47 -31 c2 -7 -6 -12 -17 -12 -21
0 -27 11 -14 24 9 9 26 2 31 -12z"/>
<path d="M1450 2076 c0 -23 73 -159 126 -233 108 -154 294 -305 464 -379 252
-109 563 -124 818 -38 277 93 526 311 661 582 18 35 30 69 28 75 -2 7 -23 -26
-47 -73 -270 -539 -898 -769 -1449 -531 -236 101 -448 305 -557 536 -37 76
-44 86 -44 61z"/>
<path d="M3631 1948 c-15 -44 -16 -42 40 -62 54 -20 64 -17 74 27 8 32 -10 38
-20 6 -9 -26 -31 -19 -27 9 4 25 -13 30 -22 7 -9 -26 -29 -17 -22 9 9 37 -10
41 -23 4z"/>
<path d="M1263 1952 c-24 -9 -43 -22 -43 -30 0 -8 6 -12 13 -9 6 2 23 8 37 12
l25 7 -27 -29 c-51 -54 -32 -67 48 -33 33 15 44 24 37 31 -8 8 -20 6 -43 -6
l-32 -17 26 35 c45 58 34 68 -41 39z"/>
<path d="M3530 1748 c-11 -18 -20 -36 -20 -40 0 -11 18 -10 25 2 4 6 23 0 50
-15 32 -19 44 -22 47 -13 3 7 -13 23 -34 36 -30 18 -37 28 -33 43 10 31 -13
22 -35 -13z"/>
<path d="M1362 1720 c-26 -24 -28 -52 -6 -74 24 -25 69 -20 93 10 46 58 -31
116 -87 64z m76 -22 c4 -19 -42 -53 -58 -43 -16 10 -12 36 8 51 22 17 46 14
50 -8z"/>
<path d="M3410 1583 c0 -4 10 -17 23 -31 l22 -24 -28 7 c-76 20 -85 1 -22 -50
52 -43 73 -40 30 5 l-28 29 37 -10 c21 -6 45 -8 54 -4 12 4 8 14 -23 45 -35
36 -65 51 -65 33z"/>
<path d="M1530 1520 c-24 -37 -30 -54 -22 -62 8 -8 18 -6 36 6 35 22 38 20 18
-14 -13 -22 -14 -32 -5 -41 8 -8 22 -3 57 20 25 18 46 36 46 41 0 13 -27 13
-35 0 -3 -5 -16 -15 -27 -21 l-21 -11 21 30 c12 16 22 35 22 41 0 15 -23 14
-46 -4 -31 -23 -36 -17 -12 15 15 21 19 33 11 41 -7 7 -20 -5 -43 -41z"/>
<path d="M3218 1407 l-27 -22 36 -47 c36 -50 51 -52 83 -13 18 21 7 29 -19 14
-27 -17 -39 -4 -18 19 21 23 12 35 -14 19 -24 -15 -39 1 -16 17 17 13 24 36
10 36 -5 -1 -20 -11 -35 -23z"/>
<path d="M1741 1338 l-33 -51 23 -18 c26 -20 49 -24 49 -9 0 5 -8 13 -17 19
-19 10 -20 7 21 73 7 11 7 21 1 27 -7 6 -22 -8 -44 -41z"/>
<path d="M3020 1281 c-34 -64 29 -128 86 -87 25 19 9 34 -17 18 -16 -10 -24
-10 -35 -1 -21 18 -18 60 6 66 28 7 25 23 -5 23 -14 0 -29 -8 -35 -19z"/>
<path d="M1951 1262 c-5 -9 -16 -34 -25 -55 l-15 -38 35 -15 c42 -18 59 -9 27
13 -31 21 -29 37 2 29 27 -7 36 11 10 20 -8 4 -15 12 -15 20 0 10 6 11 25 4
14 -5 27 -6 30 0 6 10 -1 15 -38 29 -22 8 -28 7 -36 -7z"/>
<path d="M2151 1150 c-15 -71 -15 -70 28 -70 45 0 62 16 63 61 1 36 -22 59
-58 59 -19 0 -24 -8 -33 -50z m65 6 c8 -20 -13 -56 -33 -56 -11 0 -14 6 -9 23
3 12 6 28 6 35 0 17 29 15 36 -2z"/>
<path d="M2644 1172 c-8 -5 -9 -23 -3 -61 4 -29 10 -55 11 -56 9 -8 68 9 68
20 0 8 -9 10 -25 7 -18 -3 -25 0 -25 12 0 9 8 16 20 16 11 0 20 5 20 10 0 6
-12 10 -26 10 -31 0 -28 23 4 28 12 2 22 8 22 13 0 11 -50 12 -66 1z"/>
<path d="M2410 1150 c-25 -25 -26 -72 -2 -93 35 -32 82 -18 82 24 0 24 -4 29
-25 29 -14 0 -25 -4 -25 -10 0 -5 5 -10 10 -10 6 0 10 -7 10 -15 0 -17 -9 -19
-28 -6 -8 5 -12 21 -10 37 2 23 9 30 31 32 30 4 36 17 11 26 -25 9 -33 7 -54
-14z"/>
</g>
</svg>
